<svg width="1381" height="593" viewBox="0 0 1381 593" fill="none" xmlns="http://www.w3.org/2000/svg">
<path d="M1296.71 299.88C1296.01 302.487 1295.31 305.066 1294.6 307.598C1294.28 303.798 1293.89 299.849 1293.25 295.874L1293.23 295.759L1293.21 295.646C1290.87 283.663 1284.21 273.485 1272.39 266.074C1271.59 265.572 1270.79 265.061 1269.98 264.544C1260.53 258.522 1249.89 251.743 1236.06 249.382C1253.43 246.336 1266.83 239.945 1277.22 230.928C1288.3 221.317 1295.53 209.111 1300.71 195.936L1300.72 195.918L1300.73 195.9C1301.9 192.855 1302.83 189.605 1303.63 186.423C1303.53 188.075 1303.42 189.738 1303.32 191.422L1303.32 191.441L1303.32 191.459C1303.2 193.521 1303.04 195.712 1302.87 197.976C1302.51 202.763 1302.13 207.873 1302.13 212.766C1301.64 229.218 1315.36 237.886 1327.42 242.565L1327.48 242.588L1327.54 242.61C1329.47 243.319 1331.46 243.957 1333.5 244.507C1332.33 244.812 1331.17 245.129 1330.02 245.453L1329.93 245.478L1329.84 245.505C1325.09 246.979 1319.74 250.021 1316.58 254.277C1316.5 254.369 1316.42 254.462 1316.34 254.556C1312.3 259.398 1307.26 265.43 1304.87 272.454C1301.71 281.461 1299.16 290.843 1296.71 299.88ZM1307.56 171.699C1307.56 171.699 1307.56 171.701 1307.55 171.705C1307.56 171.701 1307.56 171.698 1307.56 171.699ZM1304.58 170.696C1304.58 170.696 1304.58 170.699 1304.58 170.705C1304.58 170.699 1304.58 170.696 1304.58 170.696Z" stroke="#81ADC8" stroke-width="14"/>
<path d="M1325.03 331.13C1325 331.09 1324.96 331.053 1324.93 331.016C1324.8 330.86 1324.73 330.771 1324.7 330.725C1324.7 330.723 1324.7 330.721 1324.7 330.719M1325.03 331.13L1323.72 332.85L1323.8 332.774L1324.09 332.495L1324.98 331.636C1324.94 331.343 1324.88 331.125 1324.83 331.006C1324.77 330.85 1324.72 330.752 1324.7 330.719M1325.03 331.13C1325.06 331.136 1325.07 331.139 1325.08 331.141L1325.08 331.181L1325.03 331.13ZM1324.7 330.719C1324.69 330.712 1324.69 330.708 1324.69 330.708C1324.69 330.708 1324.69 330.712 1324.7 330.719ZM1350.26 340.886C1349.4 343.313 1348.66 345.833 1347.97 348.315C1346.75 344.069 1344.09 340.449 1339.81 337.761C1339.5 337.568 1339.19 337.369 1338.87 337.168C1336.45 335.623 1333.72 333.878 1330.48 332.615C1334.99 331.227 1338.72 329.143 1341.82 326.46C1344.97 323.722 1347.34 320.471 1349.17 316.966C1349.15 317.482 1349.14 317.996 1349.13 318.501C1348.95 325.119 1354.04 328.717 1358.48 330.661C1357.15 331.358 1355.86 332.325 1354.94 333.554C1354.9 333.598 1354.87 333.641 1354.83 333.685C1353.32 335.495 1351.25 337.966 1350.26 340.886ZM1324.86 331.073C1324.86 331.073 1324.86 331.073 1324.86 331.073L1324.86 331.073Z" stroke="#CD4631" stroke-width="8"/>
<path d="M1256.21 359.522C1257.7 358.234 1258.9 356.77 1259.9 355.202C1260.23 358.55 1262.7 360.571 1265.05 361.776C1264.49 362.162 1263.98 362.63 1263.56 363.179C1263.54 363.208 1263.51 363.237 1263.49 363.266C1262.56 364.372 1261.23 365.966 1260.58 367.866C1260.23 368.865 1259.91 369.893 1259.61 370.922C1258.68 368.843 1257.13 367.053 1254.9 365.661C1254.72 365.541 1254.52 365.417 1254.32 365.291C1253.15 364.543 1251.83 363.701 1250.32 362.985C1252.6 362.129 1254.55 360.964 1256.21 359.522Z" stroke="black" stroke-width="6"/>
<path d="M-104.953 83.9509C-104.953 130.457 -86.9684 208.876 -154.883 293.648C-221.219 376.45 -129.959 114.254 -38.3047 98.0257C68.8327 79.0556 -115.807 518.301 -125.328 428.909C-130.654 378.898 24.3181 116.399 67.9096 159.991C123.364 215.445 -22.0467 532.191 -56.0005 526.981C-115.9 517.792 98.3315 153.446 159.118 184.826C231.603 222.244 112.128 471.949 56.6898 485.343C12.339 496.058 177.755 254.066 288.446 309.449" stroke="black" stroke-width="8" stroke-linecap="round"/>
<path d="M295.941 289.989C297.022 288.054 299.98 289.052 299.667 291.246L299.091 295.288C298.904 296.605 300.029 297.734 301.346 297.552L317.061 295.372C319.181 295.078 320.219 297.871 318.421 299.033L306.744 306.583C305.389 307.459 305.576 309.496 307.067 310.111L315.016 313.393C316.844 314.148 316.585 316.813 314.647 317.203L309.444 318.248C308.269 318.484 307.564 319.694 307.938 320.833L309.414 325.327C309.978 327.044 308.156 328.569 306.565 327.711L300.221 324.291C298.593 323.414 296.749 325.026 297.4 326.757L300.89 336.022C301.647 338.032 299.135 339.66 297.61 338.147L287.746 328.364C287.11 327.733 286.132 327.602 285.353 328.043L274.234 334.334C272.381 335.382 270.391 333.195 271.609 331.449L278.157 322.063C278.756 321.204 278.592 320.028 277.78 319.367L266.362 310.073C264.903 308.885 265.743 306.522 267.625 306.522H276.421C277.415 306.522 278.258 305.791 278.4 304.807L279.779 295.245C280.078 293.176 282.949 292.894 283.645 294.864L285.879 301.188C286.452 302.811 288.671 303 289.511 301.498L295.941 289.989Z" fill="#CD4631"/>
</svg>
