<svg width="79" height="78" viewBox="0 0 79 78" fill="none" xmlns="http://www.w3.org/2000/svg">
<path d="M54.1792 22.8174C53.8406 26.1622 53.5969 28.9518 53.2583 31.7278C53.0688 33.2445 52.4458 34.5581 50.7396 34.9237C49.3177 35.2216 47.8417 34.4362 46.9885 32.6893C46.1625 31.0101 45.5667 29.2091 44.9438 27.4351C43.1427 22.3435 40.3667 17.8206 36.9271 13.6904C35.8573 12.4039 34.801 11.1174 33.5688 9.62785C33.2979 10.5351 33.0813 11.2664 32.8646 11.9976C30.5625 19.9466 29.7771 28.0445 30.1292 36.2914C30.2375 38.9591 29.926 41.681 29.5469 44.3351C29.3031 46.0414 28.6667 47.7747 26.6083 48.1539C25.1323 48.4247 23.6698 47.206 22.776 44.9851C22.1802 43.4956 21.7875 41.9112 21.2458 40.3945C20.9479 39.5414 20.5146 38.7424 20.1219 37.8487C15.1521 43.8883 18.9438 63.8081 25.5656 66.7195C25.5927 61.3841 28.0438 56.9695 30.9417 52.7987C35.0448 46.8945 37.2792 40.3674 38.024 33.2716C38.0781 32.7435 38.1865 32.2018 38.2812 31.6872C38.7417 29.2768 39.7302 28.8841 41.5312 30.6716C42.6958 31.8226 43.725 33.2445 44.4021 34.7206C47.7604 41.9518 49.1552 49.4539 46.8802 57.3351C46.6229 58.2018 46.0406 59.4206 46.474 60.0435C47.2323 60.9914 48.424 59.3664 48.6813 58.7028C49.3583 56.956 49.7781 55.1278 50.3198 53.3268C50.6583 52.2029 50.8615 50.9706 51.4708 49.9956C51.9448 49.2372 52.974 48.3029 53.6781 48.3706C54.4094 48.4383 55.425 49.481 55.6688 50.2935C57.4563 56.3466 56.6167 61.8851 51.0375 66.5841C48.1667 69.0081 44.6323 69.7935 41.0167 70.2674C36.9406 70.7956 32.9188 70.9581 28.8292 70.0237C26.8792 69.5768 24.8479 69.2789 23.6698 68.8456C22.4917 68.4122 21.4896 67.532 21.0156 66.8008C14.9896 57.4976 14.001 47.6935 18.2396 37.4153C19.1198 35.2893 20.8125 34.8424 22.3021 36.6029C23.399 37.9029 24.0219 39.6497 24.7125 41.2747C25.1865 42.4122 25.4438 43.6445 25.7688 44.8362C26.175 46.3258 26.7708 46.556 27.1771 46.2987C27.6781 46.1497 27.976 44.3487 27.9219 42.5476C27.8271 39.582 27.8813 36.6028 27.5698 33.6643C26.6625 25.0518 28.7615 16.981 31.8219 9.07264C32.5802 7.09556 33.4469 6.85181 35.0719 8.23306C41.7344 13.8799 46.5417 20.7591 48.7219 29.3174C49.0604 30.6174 49.1688 32.0799 50.8208 33.1091C50.9833 31.8497 51.1188 30.807 51.2677 29.7778C51.6469 27.232 51.8906 24.6591 52.4594 22.1674C52.8115 20.6643 53.8542 20.3529 54.951 21.4362C56.3865 22.8581 57.7948 24.4289 58.7292 26.2029C62.2094 32.8383 63.401 40.0424 63.374 47.4633C63.3469 53.2997 62.2635 58.9601 59.5823 64.1737C58.675 65.9476 57.1448 67.4101 55.8448 68.9674C55.2625 69.6716 53.9354 69.4414 54.5448 67.8706C54.599 67.7351 54.6667 67.5726 54.7615 67.4372C59.799 60.6799 60.3 52.7716 60.3677 44.8091C60.4219 38.4581 59.501 32.2289 56.5354 26.4872C55.9125 25.3091 55.1135 24.2529 54.1792 22.8174ZM53.4479 50.5914C52.649 53.2456 52.026 55.4393 51.3083 57.6195C50.7396 59.3393 49.8729 60.8966 48.1667 61.7497C46.1896 62.7518 44.2667 61.6414 44.1583 59.4206C44.1177 58.5133 44.1583 57.5789 44.3344 56.6987C45.7156 49.6299 45.0656 42.7779 42.3031 36.1289C41.8292 34.9914 41.1385 33.9487 40.4479 32.7029C40.2042 33.1091 40.0281 34.5851 40.001 35.2216C39.825 40.0424 39.2833 44.8091 36.751 49.0612C35.2344 51.5935 33.5281 54.0174 31.876 56.482C30.0479 59.231 28.4229 62.0747 27.8271 65.3789C27.4208 67.6404 27.5969 67.7487 29.7635 68.3039C34.3542 69.4685 38.85 68.7237 43.3323 67.8299C48.4375 66.8143 51.6198 63.456 53.5156 58.8247C54.5583 56.2924 54.2604 53.6654 53.4479 50.5914Z" fill="#CD4631"/>
</svg>
